# xmcd
#
# Track frame offsets:
#	150
#	19811
#	36432
#	51061
#	65880
#	81222
#	97779
#	113190
#	130886
#	148245
#	163536
#	179982
#	180846
#	181692
#	182892
#	183856
#	184738
#	185619
#
# Disc length: 2481 seconds
#
# Revision: 1
# Processed by: cddbd v1.5.2PL0 Copyright (c) Steve Scherf et al.
# Submitted via: audiograbber 1.83.01
#
DISCID=fe09af12
DTITLE=Various Artist - CDX 593
DYEAR=2014
DGENRE=Country
TTITLE0=Dierks Bentley - Drunk On A Plane
TTITLE1=Love And Theft - Night That You'll Never Forget
TTITLE2=Leah Turner - Pull Me Back (Radio Edit)
TTITLE3=Josh Thompson - Wanted Me Gone
TTITLE4=Bucky Covington - Buzzin'
TTITLE5=Heartland - I Loved Her First
TTITLE6=Dakota Bradley - Won't Be Young Forever
TTITLE7=The Chris Weaver Band - American Dreamer
TTITLE8=Kari and Billy - Are You Ready For The Weekend
TTITLE9=Pat Waters And The Chainlink Band - Hey Paula
TTITLE10=David Grey and Lisa Lee Albritton - Were Out Of Here
TTITLE11=Sherry Lynn - Home Town Country (Liner)
TTITLE12=Sherry Lynn - Kickin' Country (Liner)
TTITLE13=Sherry Lynn - My New Single (Liner)
TTITLE14=Sherry Lynn - Super Country Greatest Hits Of All Time (Liner)
TTITLE15=Sherry Lynn - The Best In Country (Liner)
TTITLE16=Sherry Lynn - Today's Best Country (Liner)
TTITLE17=Sherry Lynn - Today's Hot Country Music (Liner)
EXTD=
EXTT0=
EXTT1=
EXTT2=
EXTT3=
EXTT4=
EXTT5=
EXTT6=
EXTT7=
EXTT8=
EXTT9=
EXTT10=
EXTT11=
EXTT12=
EXTT13=
EXTT14=
EXTT15=
EXTT16=
EXTT17=
PLAYORDER=
